<svg width="121" height="35" viewBox="0 0 121 35" fill="none" xmlns="http://www.w3.org/2000/svg">
<g clip-path="url(#clip0_861_9728)">
<path d="M118.443 13.6479C116.226 14.8756 113.669 15.3304 111.17 14.942C109.814 14.7496 108.494 14.3533 107.255 13.7662C105.895 13.1472 104.616 12.3596 103.449 11.4216C102.76 10.8859 102.76 11.5468 103.243 12.6043C105.028 16.2847 106.827 20.0903 108.757 23.8194C108.22 24.1134 107.668 24.3782 107.103 24.6125L105.393 25.3569L103.636 25.9692C103.05 26.1709 102.471 26.4006 101.871 26.5467C100.671 26.8597 99.4926 27.2423 98.2655 27.4441L96.4527 27.8198L94.612 28.0772C89.7096 28.7381 84.7419 28.7381 79.8395 28.0772C74.9416 27.378 70.1294 26.1655 65.4806 24.4595C60.8419 22.7513 56.3113 20.7577 51.9143 18.4901C47.0889 16.0342 42.3738 13.3557 37.6449 10.7189C35.2805 9.40403 32.9229 8.08912 30.5378 6.81595C28.1527 5.54277 25.7606 4.29048 23.2859 3.25385C20.8344 2.18386 18.2516 1.45142 15.6067 1.07623C12.9918 0.673851 10.3184 0.949104 7.83785 1.87624C6.62097 2.36496 5.48272 3.03324 4.46015 3.85913C3.43069 4.66565 2.53075 5.6278 1.79232 6.71157C0.344701 8.84745 -0.406614 11.5399 0.310301 13.9818C0.441276 14.5384 2.10259 13.9819 2.03365 13.5505C1.97664 13.322 1.93734 13.0894 1.91635 12.8548C1.91635 12.6252 1.91649 12.3956 1.88202 12.1591C1.84755 11.9225 1.93016 11.6999 1.94395 11.4633C1.97309 11.2284 2.01913 10.9958 2.08179 10.7676C2.33131 9.80541 2.74921 8.89596 3.31573 8.08213C4.60601 6.28433 6.37483 4.89242 8.41696 4.06779C8.91464 3.86437 9.42603 3.69699 9.94727 3.56689L10.7192 3.42081C10.9812 3.36516 11.2776 3.35819 11.5602 3.3234C12.7084 3.23074 13.8628 3.25169 15.0069 3.386C17.4322 3.7392 19.801 4.41287 22.0521 5.38968C24.452 6.41709 26.7987 7.56647 29.0834 8.83348C38.5342 13.8636 47.8541 19.5546 57.9598 24.0768C61.9874 25.9023 66.133 27.4504 70.3679 28.7103C71.4295 29.0165 72.5119 29.2878 73.5804 29.58L76.8753 30.2757L80.2048 30.7975L83.562 31.1106C88.0637 31.426 92.5866 31.1689 97.0247 30.3453C101.52 29.5271 105.858 27.9912 109.874 25.7952C111.233 28.3595 112.741 30.8407 114.389 33.2256C114.508 33.4051 114.679 33.5435 114.879 33.6221C114.596 34.2552 115.389 35.278 115.878 34.7214C116.407 34.1194 116.904 33.49 117.367 32.8359C117.815 32.1402 118.229 31.4445 118.608 30.7001C118.994 29.9814 119.333 29.2377 119.621 28.4738C119.904 27.6877 120.145 26.8945 120.352 26.1083C120.571 25.321 120.735 24.5188 120.841 23.708C120.938 22.8871 121.007 22.0662 121.034 21.2592C121.07 20.4566 121.054 19.6524 120.986 18.8519C120.91 18.0379 120.8 17.2379 120.662 16.4656L120.759 16.3334C120.917 16.1247 120.759 15.8256 120.49 15.596L120.311 14.7959C120.104 14.1767 118.96 13.3766 118.443 13.6479ZM115.258 25.2039C115.247 25.1062 115.224 25.0103 115.189 24.9186L115.051 24.6125L115.32 25.0022L115.258 25.2039ZM115.065 25.837C114.851 26.6162 114.631 27.4024 114.417 28.1886C114.189 27.6737 113.941 27.1728 113.693 26.6718C114.072 26.6092 114.258 26.1222 113.817 25.4543L113.617 25.1482L114.424 25.7396C114.511 25.8154 114.617 25.8648 114.73 25.882C114.844 25.8993 114.96 25.8836 115.065 25.837ZM105.242 14.3785L105.442 14.5106C105.452 14.6017 105.475 14.6908 105.511 14.775C105.593 14.9698 105.683 15.1576 105.773 15.3524L105.242 14.3785ZM106.682 15.2272L106.875 15.3316C106.839 15.3212 106.801 15.3212 106.765 15.3316L106.682 15.2272ZM107.179 15.4846C108.207 15.9887 109.28 16.3918 110.384 16.6882C110.389 16.7638 110.403 16.8386 110.426 16.9109C110.612 17.3631 110.805 17.8083 110.991 18.2536C110.66 18.2536 110.515 18.5945 110.805 19.1998L111.398 20.466C109.986 19.1139 108.726 17.609 107.641 15.9786C107.515 15.7888 107.359 15.6218 107.179 15.4846ZM111.487 16.8761C111.901 16.9457 112.314 16.9943 112.728 17.0222C113.169 17.8362 113.603 18.6641 114.017 19.5059C113.859 19.2878 113.65 19.1113 113.41 18.9911L111.487 16.8761ZM114.824 17.0082C115.897 16.9009 116.954 16.6674 117.974 16.3125C117.995 16.4602 117.995 16.6101 117.974 16.7578C117.622 16.556 117.284 16.5143 117.229 16.8413L117.133 17.3631C116.755 17.3756 116.378 17.3044 116.03 17.1544C115.472 17.0152 115.416 17.4605 115.658 17.9336L114.824 17.0082ZM119.001 18.4832C119.051 19.6663 119.026 20.8516 118.925 22.0314C118.785 23.2041 118.569 24.3661 118.277 25.51C117.991 26.684 117.613 27.8332 117.147 28.9469C116.696 30.0981 116.171 31.2183 115.575 32.3003C115.575 32.3003 115.575 32.2446 115.534 32.2099L114.844 31.0689C114.937 31.0801 115.031 31.0585 115.11 31.0078C115.19 30.9571 115.249 30.8803 115.279 30.7906C115.789 29.1208 116.25 27.4372 116.699 25.9205C116.926 25.8022 117.036 25.4961 116.919 25.0925L117.078 24.3968C117.34 24.3272 117.484 24.0629 117.285 23.6246C117.498 22.7897 117.719 21.9966 117.939 21.2313C117.939 21.2313 117.988 21.2313 118.008 21.2313C118.634 20.5189 118.958 19.5872 118.911 18.6363L119.001 18.4832ZM111.204 25.0022L111.453 24.856C112.096 25.9805 112.674 27.142 113.183 28.3346L111.204 25.0022ZM110.088 23.0889L110.005 22.9497C110.061 22.989 110.125 23.0173 110.191 23.0332L110.088 23.0889Z" fill="#CB3737"/>
</g>
<defs>
<clipPath id="clip0_861_9728">
<rect width="121" height="34" fill="white" transform="matrix(1 0 0 -1 0 34.9231)"/>
</clipPath>
</defs>
</svg>
