<svg width="48" height="48" viewBox="0 0 48 48" fill="none" xmlns="http://www.w3.org/2000/svg">
<rect width="48" height="48" rx="8"/>
<path d="M33 24C33 24.1989 32.921 24.3897 32.7803 24.5303C32.6397 24.671 32.4489 24.75 32.25 24.75H15.75C15.5511 24.75 15.3603 24.671 15.2197 24.5303C15.079 24.3897 15 24.1989 15 24C15 23.8011 15.079 23.6103 15.2197 23.4697C15.3603 23.329 15.5511 23.25 15.75 23.25H32.25C32.4489 23.25 32.6397 23.329 32.7803 23.4697C32.921 23.6103 33 23.8011 33 24ZM15.75 18.75H32.25C32.4489 18.75 32.6397 18.671 32.7803 18.5303C32.921 18.3897 33 18.1989 33 18C33 17.8011 32.921 17.6103 32.7803 17.4697C32.6397 17.329 32.4489 17.25 32.25 17.25H15.75C15.5511 17.25 15.3603 17.329 15.2197 17.4697C15.079 17.6103 15 17.8011 15 18C15 18.1989 15.079 18.3897 15.2197 18.5303C15.3603 18.671 15.5511 18.75 15.75 18.75ZM32.25 29.25H15.75C15.5511 29.25 15.3603 29.329 15.2197 29.4697C15.079 29.6103 15 29.8011 15 30C15 30.1989 15.079 30.3897 15.2197 30.5303C15.3603 30.671 15.5511 30.75 15.75 30.75H32.25C32.4489 30.75 32.6397 30.671 32.7803 30.5303C32.921 30.3897 33 30.1989 33 30C33 29.8011 32.921 29.6103 32.7803 29.4697C32.6397 29.329 32.4489 29.25 32.25 29.25Z" fill="#F5F6F6"/>
</svg>
