<svg width="62" height="65" viewBox="0 0 62 65" fill="none" xmlns="http://www.w3.org/2000/svg">
<g clip-path="url(#clip0_861_9717)">
<path d="M31.4398 2.07959C30.0823 5.59103 30.5352 8.84655 30.6668 12.5537C30.8378 17.3673 30.9829 22.1506 31.3299 26.9558" stroke="#CB3737" stroke-width="1.5" stroke-linecap="round"/>
<path d="M31.0493 35.5757C30.0553 40.3984 30.5024 45.0992 30.9163 49.9752C31.3095 54.6058 31.8612 59.219 32.4038 63.8335" stroke="#CB3737" stroke-width="1.5" stroke-linecap="round"/>
<path d="M0.857544 36.7071C3.90676 35.3399 6.78133 35.2844 10.0631 35.06C15.0283 34.7204 19.8117 34.0741 24.6912 33.1165" stroke="#CB3737" stroke-width="1.5" stroke-linecap="round"/>
<path d="M35.7354 31.7022C44.1666 31.1582 52.4652 29.7476 60.8259 28.5789" stroke="#CB3737" stroke-width="1.5" stroke-linecap="round"/>
<path d="M37.3081 27.5535L40.0105 22.6133" stroke="#CB3737" stroke-width="1.5" stroke-linecap="round"/>
<path d="M24.9351 39.5151L21.6537 42.7827" stroke="#CB3737" stroke-width="1.5" stroke-linecap="round"/>
<path d="M39.798 38.2314L43.0602 40.4487" stroke="#CB3737" stroke-width="1.5" stroke-linecap="round"/>
<path d="M23.8541 24.6556C20.3194 23.5776 17.1742 21.9944 13.8168 20.4739" stroke="#CB3737" stroke-width="1.5" stroke-linecap="round"/>
</g>
<defs>
<clipPath id="clip0_861_9717">
<rect width="62" height="64" fill="white" transform="translate(0 0.923096)"/>
</clipPath>
</defs>
</svg>
