<svg width="45" height="96" viewBox="0 0 45 96" fill="none" xmlns="http://www.w3.org/2000/svg">
<path d="M22.4717 8.6968C22.399 15.732 22.5572 22.5292 20.8825 29.3724C20.021 32.8928 19.3568 36.3687 17.6666 39.6129C15.2568 44.2382 11.2544 49.8345 5.98911 51.4828C5.21982 51.7237 3.47508 51.886 5.2286 51.4299C7.13108 50.935 9.26619 50.5764 11.232 50.4882C14.0842 50.3605 16.6162 52.2936 18.441 54.2867C21.7037 57.8503 23.2569 62.4717 24.4027 67.1009C25.5489 71.7318 25.8528 76.4194 26.5579 81.12C26.8123 82.8158 27.0432 84.5164 27.2172 86.2224C27.2308 86.3556 27.405 88.2654 27.1776 87.8691C25.9082 85.657 25.8116 82.239 25.556 79.7889C25.1471 75.8684 25.348 71.9407 25.7643 68.028C26.0547 65.2985 26.3139 62.3246 27.3885 59.7561C28.6693 56.6947 31.4786 54.7414 34.123 52.6824C34.123 52.6824 41.6332 49.6142 40.3875 48.2278C37.5151 45.031 28.431 42.5378 26.6657 38.5482C24.6505 33.9938 24.2069 28.4964 24.0462 23.5789C23.8758 18.3634 23.5105 13.1278 23.8763 7.9231" stroke="#CB3737" stroke-width="1.5" stroke-linecap="round"/>
</svg>
